<svg xmlns="http://www.w3.org/2000/svg" viewBox="0 0 128 128">
  <rect width="128" height="128" rx="20" fill="#6750A4"/>
  <g transform="translate(12, 108) scale(0.104, -0.104)">
    <path fill="#FFFFFF" d="M111 558C120 559 126 559 128 559C128 559 130 559 132 559C171 557 180 557 215 557C252 557 264 557 284 558C247 362 170 134 96 5L169 -26C222 96 251 172 284 279C311 370 339 483 354 562C403 566 472 575 523 586C543 590 543 590 551 591L546 660C498 644 444 634 366 626C371 656 374 670 379 702C391 773 391 773 397 797L318 805C318 761 316 744 296 621C267 619 256 619 236 619C183 619 143 622 111 628ZM866 509C791 512 776 512 757 512C673 512 608 504 492 479L499 411C590 436 660 445 749 445C791 445 819 443 867 438ZM502 293C449 225 435 194 435 149C435 50 520 -1 684 -1C737 -1 795 4 862 16C895 21 895 21 906 23L899 98C842 78 753 64 678 64C564 64 503 96 503 156C503 180 512 206 528 227C535 238 538 241 558 265Z"/>
  </g>
</svg>
